<svg width="225" height="50" viewBox="0 0 225 50" fill="none" xmlns="http://www.w3.org/2000/svg">
<path d="M223.861 48.8321C224.274 48.8114 224.593 48.4593 224.572 48.0456L224.236 41.304C224.215 40.8903 223.863 40.5717 223.449 40.5923C223.036 40.613 222.717 40.9651 222.738 41.3788L223.037 47.3713L217.044 47.6705C216.631 47.6911 216.312 48.0432 216.333 48.4569C216.353 48.8706 216.705 49.1892 217.119 49.1686L223.861 48.8321ZM0.600764 38.4277C1.07043 39.0124 1.07056 39.0123 1.07113 39.0119C1.07189 39.0112 1.07289 39.0105 1.0744 39.0092C1.07744 39.0068 1.08219 39.003 1.08864 38.9979C1.10154 38.9876 1.12125 38.9719 1.14772 38.951C1.20066 38.9092 1.28062 38.8464 1.38717 38.7636C1.60027 38.5982 1.91971 38.353 2.342 38.0367C3.1866 37.404 4.4425 36.4869 6.08173 35.3539C9.36037 33.0877 14.1715 29.9582 20.2915 26.5134C32.5335 19.6225 50.0007 11.4762 70.9057 6.44712C112.687 -3.60414 168.226 -1.21634 223.32 48.6391L224.327 47.5269C168.803 -2.71745 112.73 -5.15731 70.5548 4.98873C49.4814 10.0583 31.8838 18.2669 19.5557 25.2062C13.3906 28.6765 8.54036 31.831 5.22884 34.1199C3.57299 35.2645 2.30163 36.1928 1.44274 36.8361C1.01328 37.1578 0.686921 37.4083 0.467155 37.5789C0.357271 37.6643 0.274034 37.7296 0.21788 37.774C0.189802 37.7962 0.168496 37.8131 0.154015 37.8246C0.146774 37.8304 0.141239 37.8348 0.137418 37.8379C0.135508 37.8394 0.133928 37.8407 0.132972 37.8414C0.131822 37.8424 0.1311 37.843 0.600764 38.4277Z" fill="#828282"/>
</svg>
