<svg width="122" height="40" viewBox="0 0 122 40" fill="none" xmlns="http://www.w3.org/2000/svg">
<ellipse cx="20.015" cy="20" rx="20.015" ry="20" fill="white"/>
<path d="M31.9984 37.3774C31.5941 37.6573 31.1797 37.9143 30.7615 38.1637C31.181 37.9181 31.5928 37.6573 31.9984 37.3774Z" fill="#14A9CC"/>
<path d="M14.5172 14.8212C14.5249 14.8289 14.5795 14.909 14.6075 14.8581C14.3011 12.8519 13.9592 10.8799 13.4952 9.03144C13.4825 8.9602 13.4583 8.90422 13.4418 8.8317V8.81644C13.4151 8.76682 13.4164 8.68922 13.3922 8.63833V8.62561C13.3388 8.46022 13.2969 8.29356 13.246 8.13454V8.11545C13.11 7.7516 13.0261 7.3903 12.8532 7.00737C12.7261 6.72875 12.4719 6.19697 12.1541 6.19824C11.8363 6.19952 11.6685 6.70713 11.5439 6.98828C11.373 7.33067 11.2641 7.70067 11.2223 8.0811V8.78209C11.3075 9.64846 11.5681 10.3494 11.8503 11.0224C11.957 11.1929 12.0371 11.3939 12.1325 11.5771V11.5962C12.8083 12.7545 13.6079 13.8359 14.5172 14.8212Z" fill="#039BE6"/>
<path d="M34.1608 5.82914C30.4013 2.09005 25.3112 -0.00626218 20.0071 1.40523e-05C14.703 0.00629029 9.61787 2.11465 5.8672 5.86262C2.11653 9.6106 0.00652842 14.6922 1.51225e-05 19.9927C-0.00649817 25.2933 2.09101 30.38 5.83246 34.1372C8.06069 36.3708 10.7884 38.0429 13.7906 39.0157C13.8714 38.4416 13.9224 37.8253 13.9572 37.2027C13.9659 37.148 13.9336 37.0499 13.9709 37.0275V36.8188C13.9821 36.743 13.951 36.6174 13.9908 36.5702V36.2347C14.0007 35.9862 13.9659 35.6979 14.0094 35.4817V35.4643C13.9659 35.2419 14.0007 34.9449 13.9908 34.6939V34.3857C13.951 34.3335 13.9821 34.203 13.9709 34.1235V33.9309C13.9336 33.9073 13.9709 33.8067 13.9572 33.7545V33.6501C14.7157 33.839 15.519 33.9769 16.2526 34.1919C15.8597 34.2888 15.7677 34.6752 15.7241 35.1189C15.7154 35.1773 15.7503 35.2705 15.7092 35.2941C15.7366 36.9691 16.1084 38.3049 16.4366 39.678C21.0673 40.5188 25.8463 39.7008 29.9331 37.368C29.9454 37.3562 29.957 37.3438 29.9679 37.3307C29.9887 37.2146 29.9999 37.097 30.0015 36.979C30.0432 36.6189 30.0669 36.2568 30.0724 35.8942V35.56C30.0375 34.5174 29.8137 33.4103 28.8625 33.3059C28.2047 33.2276 27.7434 33.5407 27.246 33.7234C28.3178 32.5019 29.1435 31.0294 29.2455 28.8387V28.2049C29.0565 25.5346 27.9709 23.7576 26.8108 22.0602C26.7013 21.944 26.6011 21.8193 26.5111 21.6874C26.4077 21.5677 26.3149 21.4393 26.2338 21.3034V21.2674H26.3582C26.955 21.0773 27.2211 20.5566 27.4288 19.9726C27.5225 19.5925 27.5865 19.2057 27.6203 18.8157C27.6315 18.735 27.5954 18.6082 27.6402 18.5535V18.5175C27.5954 18.4715 27.6315 18.3485 27.6203 18.269C27.6016 18.1174 27.5743 17.977 27.5494 17.8328C27.5178 17.7714 27.494 17.7063 27.4785 17.639V17.6216C27.3725 17.4094 27.2437 17.2094 27.0943 17.0251C26.9239 16.8188 26.6951 16.6225 26.6379 16.3802C26.5136 15.3016 26.812 14.3585 27.1117 13.5943C27.1512 13.4775 27.2051 13.366 27.2721 13.2625C27.2721 13.1805 27.3181 13.1482 27.3392 13.086C27.3652 12.9997 27.4002 12.9164 27.4437 12.8375C27.492 12.6601 27.5273 12.4795 27.5494 12.297V11.9031C27.4561 10.8406 27.2211 9.91487 27.0234 8.96054C26.9948 8.91332 26.9973 8.83628 26.9712 8.78533V8.76669C26.2649 6.44424 25.157 4.52191 23.1003 3.5477C23.0879 3.5477 23.0779 3.5477 23.0817 3.52782C22.8665 3.46569 22.6825 3.36752 22.45 3.31782C22.4388 3.31782 22.4288 3.31782 22.4338 3.3029C22.3095 3.3029 22.2548 3.36752 22.1516 3.38989C22.1366 3.42717 22.0732 3.41598 22.0434 3.44083H21.9949C21.9427 3.65581 21.8705 3.87824 21.9427 4.10688C22.0203 4.3026 22.1267 4.48563 22.2585 4.6499C23.0769 5.83108 23.8036 7.07319 24.432 8.36532C24.4848 8.46148 24.5309 8.56112 24.5701 8.66355C24.631 8.72692 24.6459 8.83628 24.6944 8.91208C24.718 8.98166 24.7628 9.03634 24.7802 9.10592C24.825 9.15314 24.8337 9.23018 24.8697 9.28237C25.4032 10.4566 25.9889 11.5825 26.0771 13.2041C26.1082 13.3658 26.1082 13.5319 26.0771 13.6937C26.0804 13.9018 26.0502 14.109 25.9876 14.3075C25.9814 14.3766 25.9583 14.4432 25.9205 14.5014C25.9205 14.5685 25.8819 14.5933 25.867 14.6418C25.8018 14.7968 25.7058 14.9369 25.5848 15.0537C25.4639 15.1706 25.3204 15.2617 25.1632 15.3215C25.1042 15.3535 25.0387 15.3717 24.9717 15.3749C24.7728 15.4072 24.4917 15.1749 24.3052 15.0966C24.2381 15.0966 24.2182 15.0581 24.1672 15.0444C24.0802 15.0192 23.9966 14.9833 23.9185 14.9375C23.6698 14.863 23.4398 14.7822 23.1998 14.7101C23.0909 14.6952 22.9843 14.6664 22.8827 14.6244C22.4094 14.5256 21.9307 14.455 21.449 14.4131C21.3893 14.4007 21.2836 14.4343 21.255 14.3957H20.3461C20.3187 14.4343 20.2217 14.3957 20.1695 14.4131C19.3962 14.4627 18.628 14.5719 17.8716 14.7399C17.7884 14.7733 17.7016 14.7967 17.6129 14.8095C17.4637 14.8493 17.3294 14.904 17.1728 14.9338C17.0593 14.9854 16.9416 15.027 16.8209 15.0581C16.7557 15.0928 16.685 15.1159 16.612 15.1264C16.3919 15.2382 16.1531 15.3227 15.9268 15.4271C15.9069 15.4271 15.9044 15.4495 15.8758 15.4445C14.1686 16.2969 12.8779 17.557 12.092 19.3327C12.0594 19.4468 12.0178 19.5581 11.9677 19.6657C11.9469 19.7512 11.9178 19.8344 11.8806 19.9142C11.8533 20.0633 11.8085 20.1901 11.7749 20.333V20.3864C11.2884 20.6624 10.8274 20.9809 10.3972 21.3382C10.2393 21.4737 10.0838 21.6203 9.92342 21.757C9.79908 21.8999 9.66105 22.0304 9.52054 22.1608C9.22957 22.5063 8.79436 22.9536 8.54567 23.442C8.44993 23.6259 8.2659 24.072 8.59541 24.0894H8.79064C9.06252 24.0364 9.33744 24.0003 9.6138 23.9813H9.91347C9.97316 23.9962 10.0739 23.9614 10.1037 24.0024C10.7873 24.0431 11.4611 24.1846 12.1032 24.4224C12.4327 24.5467 12.7461 24.7182 13.2049 24.6834C12.8741 24.7828 12.5372 24.7517 12.2263 24.789C11.2701 24.9132 10.6322 25.4103 10.0515 25.875C9.9336 26.0056 9.80909 26.13 9.67846 26.2478C9.55412 26.4429 9.37506 26.4963 9.39868 26.7722C9.42231 27.0481 9.73815 27.2096 9.99306 27.3314C10.6583 27.6545 11.4777 27.8284 12.2524 27.9614C12.4258 27.9999 12.6022 28.0236 12.7796 28.0322C12.909 28.0111 13.0369 27.982 13.1626 27.9452C13.5667 27.8682 14.1574 27.8284 14.3029 28.1527C14.4484 28.4771 14.2059 28.8983 14.0915 29.0984C13.9771 29.2984 13.9435 29.3556 14.0069 29.5731C14.1126 29.9533 14.3539 30.2341 14.5814 30.5373C14.6958 30.632 14.8019 30.7364 14.8985 30.8492C15.8771 31.6892 17.072 32.3056 18.3503 32.83C19.5021 33.3051 20.678 33.7198 21.873 34.0726C22.0531 34.1065 22.2294 34.1585 22.399 34.2279C22.0683 34.3206 21.7265 34.3678 21.3831 34.3683C21.3483 34.4106 21.2364 34.3758 21.1717 34.3882H20.7502C20.6743 34.3758 20.5537 34.4106 20.5015 34.3683C19.1932 34.2927 17.8957 34.087 16.6281 33.7545C15.616 33.4997 14.5665 33.1878 13.5991 32.8598C13.4627 32.7991 13.3228 32.7469 13.18 32.7032C13.0301 32.7211 12.8828 32.7565 12.7411 32.8088C12.2784 32.9407 11.8018 33.0178 11.3211 33.0387C11.171 33.0661 11.0173 33.0661 10.8672 33.0387C9.38252 32.9542 8.55065 32.2211 8.32683 30.8865C8.11879 30.9681 7.90028 31.02 7.67774 31.0406C6.44797 31.0642 6.34352 29.3593 6.78246 28.4497C6.9068 28.1776 7.13187 28.0148 7.30844 27.821C7.66033 27.4271 7.79711 26.7548 7.46636 26.1037C7.36564 25.9049 7.14554 25.7831 7.01125 25.5097C6.79986 25.0785 6.91924 24.6312 7.09829 24.2671C7.27957 23.9301 7.47967 23.6036 7.69764 23.2891C8.10176 22.6293 8.73965 22.09 9.14875 21.588C9.20026 21.5226 9.25956 21.4638 9.32532 21.4128C9.35019 21.3618 9.40366 21.342 9.42853 21.2885C9.48059 21.2241 9.53936 21.1653 9.60385 21.1133C9.64613 21.0437 9.72074 21.0077 9.76302 20.9406C9.81649 20.7517 10.1995 20.6113 10.2355 20.3976C10.2355 20.3628 10.2355 20.3292 10.2355 20.292V20.0956C10.248 20.0422 10.2131 19.9453 10.2542 19.9229C10.2633 19.7172 10.3105 19.5149 10.3934 19.3264C10.9306 17.9807 11.9876 17.1481 13.0731 16.3442C12.3229 15.4626 11.6928 14.4857 11.1992 13.4389V13.4215C11.1411 13.3344 11.0939 13.2405 11.0587 13.1419C10.8568 12.7167 10.6865 12.2773 10.5489 11.8273C10.5133 11.762 10.4897 11.6909 10.4792 11.6173C10.2066 10.755 10.0539 9.85938 10.0254 8.95557V8.35041C10.0254 8.29449 10.013 8.22615 10.0415 8.19136C10.0527 8.12053 10.0192 8.00496 10.0602 7.96272V7.94532C10.1196 7.1193 10.3146 6.30866 10.6372 5.54583C10.7139 5.30955 10.8138 5.08145 10.9356 4.86487C10.9431 4.85617 10.9468 4.83505 10.9555 4.8276C11.3621 4.41877 12.0895 3.98262 12.7249 4.41008C13.2459 4.76298 13.4984 5.43648 13.706 6.17832C13.8961 6.92855 14.048 7.68794 14.1611 8.45355C14.3082 9.18973 14.5247 9.91034 14.8077 10.6058C14.8484 10.6576 14.878 10.7172 14.8948 10.781V10.7996C15.0054 10.9798 15.0925 11.1861 15.1932 11.3749V11.3899C15.2493 11.4613 15.2965 11.5393 15.3337 11.6222V11.6458C15.7137 12.2628 16.1797 12.8227 16.7177 13.3085C16.8731 13.4389 17.1118 13.6899 17.2971 13.7272C17.516 13.7757 17.7385 13.6912 17.9449 13.7272H18.4697C18.5629 13.6862 18.7333 13.7198 18.8564 13.7111H19.1536C19.2294 13.6701 19.3811 13.7111 19.4868 13.6912H19.697C19.7504 13.6502 19.8785 13.6912 19.9593 13.6738H20.1185C20.1571 13.6353 20.2752 13.6738 20.3473 13.6601H20.4853C20.5214 13.6179 20.6321 13.6502 20.6967 13.6415C21.8892 13.5557 23.1103 13.4961 24.0789 13.1842C24.1745 13.1324 24.2628 13.0681 24.3413 12.9928V12.6772C24.3027 12.635 24.3413 12.5206 24.3239 12.4486C24.2271 11.1692 23.9556 9.90908 23.5169 8.70331C23.4783 8.64243 23.4609 8.55917 23.4273 8.49207V8.47592C23.3776 8.36905 23.3403 8.24976 23.2893 8.14165V8.12426C22.9967 7.44786 22.6572 6.79265 22.2734 6.16341C21.9004 5.57068 21.403 5.00529 21.3446 4.13297V4.11433C21.3159 3.99381 21.3159 3.86828 21.3446 3.74776V3.72664C21.3465 3.62635 21.3641 3.52699 21.3968 3.43214C21.4204 3.38864 21.4266 3.32279 21.4664 3.29172C21.5151 3.18311 21.5851 3.08535 21.6722 3.00425C21.7593 2.92314 21.8619 2.86033 21.9737 2.81953C22.1503 2.71142 22.4177 2.69527 22.6763 2.66171H22.925C23.4725 2.67815 24.0075 2.82878 24.483 3.10036C25.4019 3.58622 26.1107 4.30445 26.7436 5.0786C27.3955 5.87342 27.9595 6.73624 28.426 7.65206V7.66449C28.5888 7.96183 28.7349 8.26798 28.8637 8.58154V8.59645C28.8924 8.64722 28.9166 8.70045 28.9358 8.7555C29.3847 9.73966 29.5116 11.0481 29.5663 12.4312C29.6073 12.4722 29.5663 12.5877 29.5837 12.6586V12.8189C29.626 12.8686 29.5911 12.999 29.6023 13.0798V13.3606C29.6229 13.4992 29.6275 13.6398 29.616 13.7794V14.935C29.6274 15.1219 29.6228 15.3094 29.6023 15.4955V15.7079C29.5911 15.7962 29.626 15.9279 29.5837 15.985V16.1093C29.5725 16.1727 29.6073 16.2833 29.5663 16.3181V16.4237C29.5538 16.4759 29.5911 16.574 29.5464 16.6001C29.5315 17.2437 29.4439 17.8836 29.2853 18.5076C29.2765 18.5938 29.2529 18.6778 29.2156 18.7561C29.193 18.8814 29.158 19.0042 29.1112 19.1227C29.0816 19.2621 29.0348 19.3973 28.9719 19.5253C28.9725 19.5491 28.9669 19.5726 28.9557 19.5936C28.9309 19.6545 28.9259 19.7303 28.8824 19.7688C28.7928 20.0708 28.6772 20.3429 28.5665 20.6275C28.5451 20.7124 28.5168 20.7955 28.482 20.876C28.4711 20.9604 28.4523 21.0436 28.426 21.1245V21.3345C28.4322 21.3594 28.4509 21.3681 28.4447 21.4066C28.5218 21.5308 28.5839 21.6551 28.6548 21.7893C29.8635 23.529 30.9515 25.409 31.7398 27.5861C32.5282 29.7632 33.0256 32.1962 33.2817 34.9238L31.6652 36.267C32.5536 35.626 33.3882 34.9137 34.1608 34.1372C36.0215 32.2787 37.4976 30.0721 38.5047 27.6434C39.5117 25.2147 40.0301 22.6115 40.0301 19.9825C40.0301 17.3536 39.5117 14.7504 38.5047 12.3217C37.4976 9.89298 36.0215 7.68636 34.1608 5.8279V5.82914ZM22.1714 20.5703C21.7984 20.502 21.4378 20.3802 21.1381 20.3417C20.7651 20.2932 20.5164 20.5069 20.1745 20.5902C20.264 20.373 20.3878 20.1716 20.5413 19.9937C20.7355 19.7573 20.9736 19.5607 21.2426 19.4147C21.3247 19.3824 21.3781 19.3202 21.4851 19.3128C21.5488 19.2704 21.6226 19.2456 21.6989 19.2407C21.8409 19.197 21.9897 19.1797 22.1379 19.1898C22.154 19.1599 22.2946 19.1599 22.3132 19.1898C23.0381 19.2395 23.589 19.4656 24.345 19.488H24.677C24.8362 19.4768 24.9618 19.4482 25.1172 19.4345C25.182 19.3978 25.2534 19.3741 25.3273 19.365C25.3239 19.4319 25.3057 19.4973 25.2739 19.5563C25.2695 19.6181 25.2521 19.6782 25.2229 19.7328C25.1973 19.8166 25.155 19.8943 25.0985 19.9614C25.0646 20.0379 25.018 20.1081 24.9605 20.1689C24.9104 20.2351 24.8514 20.2941 24.7852 20.3441C24.4545 20.604 24.0469 20.7469 23.6263 20.7505H23.3428C22.9489 20.7156 22.5576 20.6555 22.1714 20.5703Z" fill="#039BE6"/>
<path d="M55.0018 22.5166C53.4789 22.5166 51.9713 23.6893 51.9713 25.1899C51.9713 28.2581 56.2189 28.1282 58.7608 27.8016V29.2032C57.507 30.0519 56.2468 30.4762 54.9637 30.4762C49.975 30.4762 47.6564 25.9409 47.6564 21.5727C47.6564 17.5865 50.2656 12.9573 54.7734 12.9573C58.4436 12.9573 61.4995 16.2864 61.4995 19.9731C61.4995 21.1445 59.733 22.9088 58.639 22.9088C57.4055 22.9126 56.2189 22.5166 55.0018 22.5166ZM52.4205 18.4017C52.4205 18.9559 53.9003 20.1943 54.6427 20.1943C55.5412 20.1943 56.9905 18.9251 56.9905 18.0764C56.9905 17.0323 55.7036 15.9238 54.6427 15.9238C53.2936 15.929 52.4205 16.9718 52.4205 18.412V18.4017Z" fill="#03973D"/>
<path d="M69.5853 29.5993C67.5903 29.5993 65.7539 28.9474 65.5242 26.3023C65.2704 23.6289 65.1702 20.854 65.1702 18.1459C65.1702 15.1806 65.3339 10.7109 65.8136 7.61188C66.1689 7.22611 66.7794 6.66675 67.2933 6.66675L67.7134 6.82877C68.65 9.04693 68.9051 12.7001 68.9051 14.7576C68.9051 17.1352 68.6183 19.4871 68.6183 21.83C68.6183 25.5475 70.1627 26.3653 71.7059 26.5877C72.5423 26.7536 73.3811 26.688 74.0271 26.7536C74.9586 26.8526 75.4751 27.2114 75.5081 27.9932C75.635 28.811 74.6058 29.3948 73.126 29.526C71.9407 29.6623 70.4876 29.5993 69.5853 29.5993Z" fill="#03973D"/>
<path d="M87.3945 29.5992C86.6166 29.9258 84.5264 30.021 83.7853 30.021C80.3397 30.021 78.0211 30.2486 76.9322 25.8779C76.8513 25.4926 76.8185 25.0986 76.8345 24.7051C76.8345 21.3438 78.6049 19.8792 80.2763 18.9636C81.0491 18.5071 81.8537 18.1792 82.4692 17.8218C83.0137 17.4951 83.2408 17.1994 83.2408 16.8445C83.2408 16.0948 81.9844 15.9971 81.4375 15.7965C80.7281 15.5393 80.1519 15.1458 80.1519 14.265C80.1519 13.1553 81.9844 12.7991 82.817 12.7991C87.3958 12.7991 88.2626 16.6825 88.2626 20.2019C88.2626 22.1308 88.7778 24.0532 88.7778 25.9769C88.7762 26.7115 88.7001 27.444 88.5507 28.1629C88.0672 28.6207 88.0976 29.2675 87.3945 29.5992ZM80.209 24.5071C80.209 25.5487 80.8867 26.5915 81.7915 26.5915C83.5606 26.5915 84.7498 25.159 84.6851 23.2984C84.6229 21.6344 83.2738 21.4364 82.6253 21.4364C81.6304 21.4364 80.209 23.3652 80.209 24.5071Z" fill="#03973D"/>
<path d="M105.777 29.5633C105.454 29.5633 105.071 29.3678 104.748 29.3061C102.881 26.8899 103.715 24.1522 103.715 21.3786C103.715 20.7948 103.842 18.0867 103.138 18.0867C100.37 18.0867 101.361 23.499 101.361 25.1308C101.361 26.0798 100.781 29.4681 99.4333 29.4681C96.9256 29.4681 97.5969 23.4694 97.5969 21.9354C97.5969 21.052 97.8254 17.9568 96.5017 17.9568C95.2466 17.9568 94.89 20.1428 94.89 21.1188C94.89 22.5886 95.2149 24.0558 95.2149 25.5539C95.2149 26.8282 94.6971 29.5684 93.0244 29.5684C92.0878 29.5684 91.3848 26.4681 91.2477 23.0451C91.1208 19.8818 91.2147 16.4871 91.2147 15.5754C91.2147 13.9757 92.3747 13.5527 93.4991 13.5527C95.9776 13.5527 98.4244 12.9329 100.904 12.9329C106.857 12.9329 107.6 17.2702 107.6 22.0318C107.6 22.6863 107.694 24.448 107.568 26.0798C107.418 27.9662 106.805 29.5633 105.777 29.5633Z" fill="#03973D"/>
<path d="M120.621 29.5992C119.845 29.9258 117.755 30.021 117.014 30.021C113.57 30.021 111.255 30.2486 110.161 25.8779C110.08 25.4926 110.047 25.0986 110.063 24.7051C110.063 21.3438 111.84 19.8792 113.506 18.9636C114.277 18.5071 115.085 18.1792 115.697 17.8218C116.246 17.4951 116.467 17.1994 116.467 16.8445C116.467 16.0948 115.212 15.9971 114.668 15.7965C113.957 15.5393 113.379 15.1458 113.379 14.265C113.379 13.1553 115.212 12.7991 116.044 12.7991C120.613 12.7991 121.485 16.6825 121.485 20.2019C121.485 22.1308 122 24.0532 122 25.9769C121.999 26.7115 121.923 27.444 121.774 28.1629C121.296 28.6207 121.326 29.2675 120.621 29.5992ZM113.44 24.5071C113.44 25.5487 114.115 26.5915 115.017 26.5915C116.793 26.5915 117.979 25.159 117.915 23.2984C117.853 21.6344 116.498 21.4364 115.862 21.4364C114.859 21.4364 113.44 23.3652 113.44 24.5071Z" fill="#03973D"/>
</svg>
